<svg viewBox="0 0 18 18" xmlns="http://www.w3.org/2000/svg" xmlns:xlink="http://www.w3.org/1999/xlink" width="18.000000" height="18.000000" fill="none">
	<rect id="提醒-remind" width="18.000000" height="18.000000" x="0.000000" y="0.000000" />
	<path id="形状结合" d="M9.0875 1.6875C12.0864 1.6875 14.4722 4.55106 14.4722 8.03789L14.472 10.128L15.705 12.9967C15.8546 13.3447 15.6246 13.7297 15.2624 13.7765L11.6221 13.7817C11.5501 15.1893 10.4066 16.3125 9.00071 16.3125C7.54809 16.3125 6.37571 15.1135 6.37571 13.6406L6.3795 13.7813L2.81321 13.7813C2.42339 13.7813 2.1599 13.3984 2.27876 13.0427L3.70271 10.1137L3.7028 8.03789C3.7028 4.61811 5.99771 1.79787 8.91518 1.69066L9.0875 1.6875ZM10.4932 13.7813L7.50746 13.7813L7.51704 13.8698C7.6192 14.5801 8.18893 15.1301 8.88912 15.1833L9.00071 15.1875C9.75122 15.1875 10.3768 14.6174 10.4844 13.8698L10.4932 13.7813ZM9.0875 2.8125C6.75996 2.8125 4.8278 5.13159 4.8278 8.03789L4.8278 10.2436C4.8278 10.3291 4.80831 10.4135 4.7708 10.4903L3.71321 12.6563L14.334 12.6563L13.3929 10.4657C13.3728 10.4189 13.3592 10.3697 13.3524 10.3195L13.3472 10.2436L13.3472 8.03789C13.3472 5.13159 11.415 2.8125 9.0875 2.8125Z" fill="currentColor" fill-rule="nonzero" />
</svg>

