<svg viewBox="0 0 16 16" xmlns="http://www.w3.org/2000/svg" xmlns:xlink="http://www.w3.org/1999/xlink" width="16.000000" height="16.000000" fill="none">
	<rect id="删除" width="16.000000" height="16.000000" x="0.000000" y="0.000000" />
	<path id="合并" d="M12 0C14.2091 0 16 1.79086 16 4L16 12C16 14.2091 14.2091 16 12 16L4 16C1.79086 16 0 14.2091 0 12L0 4C0 1.79086 1.79086 0 4 0L12 0ZM12 1L4 1C3.58579 1 3.2019 1.07322 2.84835 1.21967C2.4948 1.36612 2.17157 1.58579 1.87868 1.87868C1.58579 2.17157 1.36612 2.4948 1.21967 2.84835C1.07322 3.2019 1 3.58579 1 4L1 12C1 12.4142 1.07322 12.7981 1.21967 13.1517C1.36612 13.5052 1.58579 13.8284 1.87868 14.1213C2.17157 14.4142 2.49479 14.6339 2.84835 14.7803C3.2019 14.9268 3.58578 15 4 15L12 15C12.4142 15 12.7981 14.9268 13.1517 14.7803C13.5052 14.6339 13.8284 14.4142 14.1213 14.1213C14.4142 13.8284 14.6339 13.5052 14.7803 13.1517C14.9268 12.7981 15 12.4142 15 12L15 4C15 3.58579 14.9268 3.2019 14.7803 2.84835C14.6339 2.4948 14.4142 2.17157 14.1213 1.87868C13.8284 1.58579 13.5052 1.36612 13.1517 1.21967C12.7981 1.07322 12.4142 1 12 1ZM4.5 8C4.5 8.28 4.72 8.5 5 8.5L11 8.5C11.28 8.5 11.5 8.28 11.5 8C11.5 7.72 11.28 7.5 11 7.5L5 7.5C4.72 7.5 4.5 7.72 4.5 8Z" fill="rgb(20,118,255)" fill-rule="evenodd" />
</svg>

