<svg viewBox="0 0 16 16" xmlns="http://www.w3.org/2000/svg" xmlns:xlink="http://www.w3.org/1999/xlink" width="16.000000" height="16.000000" fill="none">
	<rect id="文本" width="16.000000" height="16.000000" x="0.000000" y="0.000000" />
	<path id="_文本" d="M9.65 0.54C9.5 0.5 9.33 0.5 9.17 0.5L4 0.5C3.81 0.5 3.63 0.51 3.46 0.55C3.31 0.59 3.16 0.63 3.02 0.69C2.88 0.75 2.75 0.82 2.62 0.91C2.48 1 2.35 1.11 2.23 1.23C2.11 1.35 2 1.48 1.91 1.62C1.82 1.75 1.75 1.88 1.69 2.02C1.63 2.16 1.59 2.31 1.55 2.46C1.5 2.63 1.5 2.81 1.5 3L1.5 13C1.5 13.18 1.5 13.36 1.55 13.53C1.59 13.68 1.63 13.83 1.69 13.97C1.75 14.11 1.82 14.24 1.91 14.37C2 14.51 2.11 14.64 2.23 14.76C2.46 14.99 2.72 15.17 3.02 15.3C3.33 15.43 3.66 15.5 4 15.5L12 15.5C12.18 15.5 12.36 15.48 12.53 15.44C12.68 15.4 12.83 15.36 12.97 15.3C13.27 15.17 13.53 14.99 13.76 14.76C13.99 14.53 14.17 14.27 14.3 13.97C14.43 13.66 14.5 13.33 14.5 13L14.5 5.82C14.5 5.66 14.48 5.5 14.45 5.34C14.42 5.18 14.37 5.02 14.3 4.87C14.24 4.71 14.16 4.57 14.07 4.43C13.98 4.3 13.88 4.17 13.76 4.06L10.93 1.23C10.7 0.989999 10.43 0.809999 10.12 0.689999C9.97 0.619999 9.81 0.569999 9.65 0.539999L9.65 0.54ZM4 1.5L9.27 1.5C9.33 1.5 9.44 1.51 9.51 1.53L9.51 4C9.51 4.1 9.52 4.21 9.54 4.31C9.56 4.4 9.59 4.49 9.62 4.58C9.66 4.67 9.7 4.75 9.75 4.82C9.81 4.91 9.87 4.98 9.94 5.06C10.02 5.13 10.09 5.19 10.18 5.25C10.25 5.3 10.34 5.34 10.42 5.38C10.61 5.46 10.8 5.5 11.01 5.5L13.47 5.53C13.49 5.63 13.5 5.72 13.5 5.82L13.5 13C13.5 13.11 13.48 13.22 13.46 13.34C13.44 13.42 13.41 13.5 13.38 13.58C13.3 13.76 13.19 13.92 13.06 14.06C12.92 14.19 12.76 14.3 12.58 14.38C12.39 14.46 12.2 14.5 12 14.5L4 14.5C3.88 14.5 3.77 14.48 3.65 14.46C3.57 14.44 3.49 14.41 3.41 14.38C3.33 14.34 3.25 14.3 3.18 14.25C3.09 14.2 3.01 14.13 2.93 14.06C2.8 13.92 2.69 13.76 2.61 13.58C2.53 13.39 2.5 13.2 2.5 13L2.5 3C2.5 2.88 2.5 2.77 2.53 2.65C2.55 2.57 2.58 2.49 2.61 2.41C2.65 2.33 2.69 2.25 2.74 2.18C2.79 2.09 2.86 2.01 2.93 1.93C3.01 1.86 3.09 1.79 3.18 1.74C3.25 1.69 3.33 1.65 3.41 1.61C3.49 1.58 3.57 1.55 3.65 1.53C3.77 1.5 3.88 1.5 4 1.5L4 1.5ZM10.5 4L10.5 2.2L12.76 4.46L11 4.5C10.93 4.5 10.86 4.48 10.8 4.46C10.74 4.43 10.69 4.4 10.64 4.35C10.59 4.3 10.56 4.25 10.53 4.19C10.51 4.13 10.5 4.06 10.5 4L10.5 4ZM11.5 7.5C11.5 7.22 11.28 7 11 7L5 7C4.72 7 4.5 7.22 4.5 7.5C4.5 7.78 4.72 8 5 8L11 8C11.28 8 11.5 7.78 11.5 7.5ZM11.5 9.5C11.5 9.22 11.28 9 11 9L5 9C4.72 9 4.5 9.22 4.5 9.5C4.5 9.78 4.72 10 5 10L11 10C11.28 10 11.5 9.78 11.5 9.5ZM8.5 11C8.78 11 9 11.22 9 11.5C9 11.78 8.78 12 8.5 12L5 12C4.72 12 4.5 11.78 4.5 11.5C4.5 11.22 4.72 11 5 11L8.5 11Z" fill="rgb(25,25,25)" fill-rule="evenodd" />
</svg>
