<svg viewBox="0 0 42 42" xmlns="http://www.w3.org/2000/svg" xmlns:xlink="http://www.w3.org/1999/xlink" width="42.000000" height="42.000000" fill="none" clip-path="url(#clipPath_19)">
	<defs>
		<clipPath id="clipPath_19">
			<rect width="42.000000" height="42.000000" x="0.000000" y="0.000000" rx="11.000000" fill="rgb(255,255,255)" />
		</clipPath>
	</defs>
	<rect id="slack 2" width="40.000000" height="40.000000" x="1.000000" y="1.000000" rx="10.000000" fill="rgb(255,255,255)" />
	<g id="组合 91335128">
		<path id="矢量 8933" d="M12.7405 25.0127C12.7405 26.7831 11.3922 28.2193 9.72765 28.2193C8.06436 28.2193 6.71484 26.7831 6.71484 25.0127C6.71484 23.2422 8.06436 21.806 9.72765 21.806L12.7405 21.806L12.7405 25.0127ZM14.2469 25.0127C14.2469 23.2397 15.5964 21.8047 17.261 21.8047C18.9243 21.8047 20.2738 23.2409 20.2738 25.0114L20.2738 33.0319C20.2738 34.8036 18.9243 36.2399 17.261 36.2399C15.5964 36.2399 14.2469 34.8036 14.2469 33.0319L14.2469 25.0114L14.2469 25.0127Z" fill="rgb(224,30,90)" fill-rule="nonzero" />
		<path id="矢量 8934" d="M17.2597 12.1777C15.5964 12.1777 14.2469 10.7414 14.2469 8.96969C14.2469 7.19797 15.5964 5.76172 17.2597 5.76172C18.9243 5.76172 20.2738 7.19797 20.2738 8.96969L20.2738 12.1777L17.2597 12.1777ZM17.2597 13.781C18.9243 13.781 20.2738 15.2185 20.2738 16.989C20.2738 18.762 18.9243 20.1969 17.2597 20.1969L9.72765 20.1969C8.06436 20.1969 6.71484 18.7607 6.71484 16.989C6.71484 15.2185 8.06436 13.781 9.72765 13.781L17.2597 13.781Z" fill="rgb(54,197,240)" fill-rule="nonzero" />
		<path id="矢量 8935" d="M29.3126 16.989C29.3126 15.2185 30.6608 13.781 32.3254 13.781C33.9887 13.781 35.3382 15.2185 35.3382 16.989C35.3382 18.762 33.9887 20.1969 32.3254 20.1969L29.3126 20.1969L29.3126 16.989ZM27.8062 16.989C27.8062 18.762 26.4567 20.1969 24.7921 20.1969C23.1288 20.1969 21.7793 18.7607 21.7793 16.989L21.7793 8.96969C21.7793 7.19797 23.1288 5.76172 24.7921 5.76172C26.4567 5.76172 27.8062 7.19797 27.8062 8.96969L27.8062 16.989L27.8062 16.989Z" fill="rgb(46,182,125)" fill-rule="nonzero" />
		<path id="矢量 8936" d="M24.7934 29.8213C26.4567 29.8213 27.8062 31.2576 27.8062 33.0293C27.8062 34.801 26.4567 36.2373 24.7934 36.2373C23.1288 36.2373 21.7793 34.801 21.7793 33.0293L21.7793 29.8213L24.7934 29.8213ZM24.7934 28.2167C23.1288 28.2167 21.7793 26.7805 21.7793 25.0087C21.7793 23.2383 23.1288 21.8008 24.7934 21.8008L32.3241 21.8008C33.9887 21.8008 35.3369 23.2383 35.3369 25.0087C35.3369 26.7817 33.9887 28.2167 32.3241 28.2167L24.7934 28.2167Z" fill="rgb(236,178,46)" fill-rule="nonzero" />
	</g>
	<rect id="slack 2" width="41.000000" height="41.000000" x="0.500000" y="0.500000" rx="10.500000" stroke="rgb(219,219,219)" stroke-width="1.000000" />
</svg>
