<svg viewBox="0 0 16 16" xmlns="http://www.w3.org/2000/svg" xmlns:xlink="http://www.w3.org/1999/xlink" width="16.000000" height="16.000000" fill="none" customFrame="#000000">
	<defs>
		<clipPath id="clipPath_1">
			<rect width="16.000000" height="16.000000" x="0.000000" y="0.000000" fill="rgb(255,255,255)" />
		</clipPath>
	</defs>
	<rect id="优化中" width="16.000000" height="16.000000" x="0.000000" y="0.000000" />
	<g id="标签状态" customFrame="url(#clipPath_1)">
		<rect id="标签状态" width="16.000000" height="16.000000" x="0.000000" y="0.000000" />
		<path id="path" d="M8 3C5.24 3 3 5.24 3 8C3 10.76 5.24 13 8 13C10.76 13 13 10.76 13 8C13 5.24 10.76 3 8 3ZM8 11C6.34 11 5 9.66 5 8C5 6.34 6.34 5 8 5C9.66 5 11 6.34 11 8C11 9.66 9.66 11 8 11Z" fill="rgb(92,179,0)" fill-rule="nonzero" />
	</g>
</svg>
